<svg xmlns="http://www.w3.org/2000/svg" width="55" height="55" fill="none"><g filter="url(#a)"><circle cx="27.5" cy="27.5" r="27.5" fill="url(#b)"/></g><g fill="#fff" filter="url(#c)"><path d="M39.303 27.035c1.142 1.942 2.192 4.242 1.987 6.553-.206 2.336-1.874 4.154-3.87 5.238-2.93 1.588-6.405.987-9.335-.23-2.959-1.228-5.925-2.439-8.886-3.66-.425-.174-.926-.322-1.243-.661-1.017-1.091-.014-2.908 1.458-2.59.586.127 1.157.427 1.712.638l2.544.988c.157.06.316.124.472.184.36.183.83-.115.84-.507a.46.46 0 0 0-.168-.431l-6.177-9.362c-.759-1.15-1.577-2.285-2.287-3.468-.404-.673-.33-1.562.304-2.08.73-.592 1.766-.377 2.294.36.363.507.689 1.045 1.03 1.561l3.545 5.374a.52.52 0 0 0 .523.244.54.54 0 0 0 .274-.081.56.56 0 0 0 .186-.222.52.52 0 0 0-.022-.575c-.038-.056-.073-.11-.102-.172-.01-.016-.024-.054-.03-.062-.01-.034-.028-.069-.038-.103a4 4 0 0 1-.059-.212v-.01c-.006-.044-.014-.091-.015-.137a2 2 0 0 1-.003-.244l.003-.013c.007-.034.011-.072.018-.105q.018-.108.05-.208c.003-.014.016-.046.02-.067l.042-.097c.031-.067.068-.126.102-.19.005-.01.004-.002.005-.01a3.473 3.473 0 0 1 .231-.27.1.1 0 0 0 .03-.024c.033-.021.059-.044.089-.07l.191-.126c.016-.01.063-.03.07-.035.021-.013.047-.019.07-.028q.102-.042.207-.067l.077-.016c.01 0 .08-.011.098-.011.071-.007.141-.006.216-.009.004-.003.028-.001.046-.001.024.001.051.007.075.008a2 2 0 0 1 .312.075c-.102-.032.056.021.062.023q.1.041.196.093c.028.016.063.034.094.054.003.004.003.004.012.01q.088.063.169.14c.026.023.052.052.079.076.008.012.017.017.027.023l.019.028c.186.256.355.53.53.794l.608.923a.56.56 0 0 0 .453.244.56.56 0 0 0 .344-.081.54.54 0 0 0 .218-.308.57.57 0 0 0-.054-.489 1.4 1.4 0 0 1-.102-.172c-.01-.016-.024-.054-.03-.062-.01-.034-.028-.07-.038-.103a4 4 0 0 1-.058-.212l-.002-.011c-.005-.044-.013-.09-.014-.137a2 2 0 0 1-.003-.243l.003-.014c.007-.033.011-.071.018-.105a1.5 1.5 0 0 1 .073-.27l.041-.097c.032-.067.069-.127.103-.19.005-.01.004-.003.005-.01.02-.03.044-.057.064-.088q.077-.094.165-.185a.1.1 0 0 0 .03-.025c.032-.022.058-.045.088-.07l.191-.126c.017-.011.063-.03.07-.035.021-.014.047-.019.07-.028q.103-.042.207-.067l.077-.016c.011-.001.08-.012.098-.012.071-.006.142-.006.216-.008.004-.003.028-.001.046-.001.024.001.051.007.076.008a2 2 0 0 1 .311.074c-.102-.031.056.022.063.024.064.027.132.058.195.092.028.017.063.034.094.055.003.004.003.004.012.01.058.043.116.086.169.14.027.022.052.052.079.075q.012.017.027.023l.019.029c.186.256.355.53.532.798l.612.927a.5.5 0 0 0 .565.245.56.56 0 0 0 .231-.082.57.57 0 0 0 .246-.425.5.5 0 0 0-.012-.196.7.7 0 0 0-.07-.176c-.802-1.332.908-2.84 2.067-1.737.426.407.726 1.038 1.048 1.526.936 1.419 1.922 2.816 2.782 4.279z"/><path d="M37.312 21.866c-.443-.671-.845-1.45-1.576-1.849-1.29-.706-2.929-.11-3.502 1.208a4 4 0 0 0-.227-.264c-.546-.562-1.406-.847-2.181-.738-.852.125-1.6.63-1.99 1.401-.036.07-.066.149-.095.22-.06-.072-.121-.148-.188-.214-.546-.562-1.406-.847-2.181-.738-.852.125-1.6.63-1.99 1.401-.035.064-.06.132-.087.197l-2.159-3.272c-.408-.618-.795-1.25-1.223-1.854-1.087-1.541-3.436-1.648-4.516-.02-1.21 1.825.339 3.534 1.31 5.006l6.225 9.435c-.899-.352-1.797-.705-2.701-1.048-1.224-.464-2.596-.207-3.382.913-.895 1.29-.47 3.104.878 3.89.399.233.865.38 1.29.555.868.36 1.738.714 2.607 1.075 1.822.752 3.642 1.5 5.468 2.25 3.234 1.332 6.816 2.201 10.187.724 2.397-1.05 4.545-3.116 5.043-5.76.492-2.594-.527-5.219-1.763-7.455-.972-1.757-2.153-3.405-3.258-5.08zm1.99 5.169c1.142 1.942 2.192 4.242 1.988 6.553-.206 2.336-1.874 4.154-3.87 5.238-2.93 1.588-6.405.987-9.335-.23-2.96-1.228-5.926-2.439-8.887-3.66-.425-.174-.925-.322-1.242-.661-1.018-1.091-.015-2.908 1.457-2.59.586.127 1.158.427 1.712.638q1.273.494 2.545.988c.156.06.315.124.472.184.36.183.83-.115.84-.507a.46.46 0 0 0-.169-.432l-6.176-9.361c-.76-1.15-1.578-2.285-2.288-3.468-.403-.673-.33-1.562.305-2.08.73-.592 1.766-.377 2.293.36.364.507.69 1.045 1.03 1.561l3.546 5.374a.52.52 0 0 0 .523.244.54.54 0 0 0 .273-.081.56.56 0 0 0 .187-.222.52.52 0 0 0-.023-.575 1.4 1.4 0 0 1-.102-.172c-.01-.016-.024-.054-.03-.062-.01-.034-.027-.069-.038-.103a4 4 0 0 1-.058-.212l-.002-.011q-.01-.066-.014-.137a2 2 0 0 1-.002-.243l.002-.013.019-.106a1.5 1.5 0 0 1 .05-.207c.002-.014.016-.046.02-.067l.041-.097c.032-.067.068-.126.102-.19.006-.01.005-.002.006-.01q.03-.044.067-.084.077-.094.164-.184a.1.1 0 0 0 .03-.026c.033-.021.058-.044.088-.07l.192-.126c.016-.01.062-.03.07-.035.02-.013.046-.019.07-.028q.101-.042.206-.067l.078-.016c.01 0 .08-.011.097-.011.072-.007.142-.006.216-.009.004-.003.029-.001.046-.001.025.001.052.007.076.008.072.012.139.025.21.043.033.007.07.018.102.032-.103-.032.055.021.062.023q.099.041.195.093c.029.016.064.034.095.054.002.004.002.004.012.01q.088.063.168.14c.027.023.052.052.08.075a.1.1 0 0 0 .026.024l.02.028c.186.256.354.53.529.794l.609.923a.56.56 0 0 0 .453.244.56.56 0 0 0 .343-.081.54.54 0 0 0 .218-.308.57.57 0 0 0-.054-.489c-.037-.057-.072-.11-.102-.172-.01-.016-.024-.054-.03-.062-.01-.034-.027-.07-.038-.103a4 4 0 0 1-.058-.213l-.001-.01q-.01-.066-.015-.137a2 2 0 0 1-.002-.243l.002-.014c.008-.033.012-.071.019-.105q.017-.108.05-.208c.002-.013.016-.046.023-.062l.04-.097c.032-.067.07-.127.103-.19.006-.01.004-.003.006-.01q.031-.043.064-.088a3 3 0 0 1 .164-.185c.004-.002.02-.013.03-.025.033-.022.059-.045.088-.07l.192-.126c.016-.011.062-.03.07-.035.02-.014.046-.019.07-.028q.102-.042.206-.067l.078-.016c.01-.001.08-.012.097-.012.072-.006.142-.006.216-.008.004-.003.029-.001.046-.001.025.001.052.007.076.008q.106.016.21.043a.6.6 0 0 1 .102.031c-.103-.031.055.022.062.024q.099.04.195.092c.029.017.064.034.095.055.003.004.003.004.012.01.058.043.116.086.168.14.027.022.053.052.08.075q.012.017.026.023l.02.029c.186.256.355.53.532.798l.611.927a.5.5 0 0 0 .565.245.6.6 0 0 0 .232-.082.57.57 0 0 0 .245-.425.5.5 0 0 0-.012-.196.7.7 0 0 0-.07-.176c-.802-1.332.908-2.84 2.068-1.737.426.407.725 1.038 1.047 1.526.936 1.419 1.922 2.816 2.782 4.279zM14.982 14.216l-2.481-3.76c-.408-.618-1.368.016-.96.633l2.48 3.76c.408.618 1.368-.015.96-.633M18.326 13.876l.907-4.415c.149-.722-.975-.956-1.127-.23l-.796 3.867-.112.547c-.149.723.975.956 1.128.23M12.392 17.792 8.523 17l-.547-.112c-.722-.148-.495-1.272.232-1.127l3.869.79.547.112c.722.148.494 1.272-.232 1.127"/></g><defs><filter id="a" width="55" height="57" x="0" y="-2" color-interpolation-filters="sRGB" filterUnits="userSpaceOnUse"><feFlood flood-opacity="0" result="BackgroundImageFix"/><feBlend in="SourceGraphic" in2="BackgroundImageFix" result="shape"/><feColorMatrix in="SourceAlpha" result="hardAlpha" values="0 0 0 0 0 0 0 0 0 0 0 0 0 0 0 0 0 0 127 0"/><feOffset dy="-2"/><feGaussianBlur stdDeviation="1.6"/><feComposite in2="hardAlpha" k2="-1" k3="1" operator="arithmetic"/><feColorMatrix values="0 0 0 0 0 0 0 0 0 0.180392 0 0 0 0 0.423529 0 0 0 1 0"/><feBlend in2="shape" result="effect1_innerShadow_371_56"/></filter><filter id="c" width="37.113" height="35.227" x="6.435" y="8.789" color-interpolation-filters="sRGB" filterUnits="userSpaceOnUse"><feFlood flood-opacity="0" result="BackgroundImageFix"/><feColorMatrix in="SourceAlpha" result="hardAlpha" values="0 0 0 0 0 0 0 0 0 0 0 0 0 0 0 0 0 0 127 0"/><feOffset dy="2"/><feGaussianBlur stdDeviation=".55"/><feComposite in2="hardAlpha" operator="out"/><feColorMatrix values="0 0 0 0 0 0 0 0 0 0.180392 0 0 0 0 0.423529 0 0 0 1 0"/><feBlend in2="BackgroundImageFix" result="effect1_dropShadow_371_56"/><feBlend in="SourceGraphic" in2="effect1_dropShadow_371_56" result="shape"/></filter><radialGradient id="b" cx="0" cy="0" r="1" gradientTransform="rotate(-145.079 66.824 14.468)scale(111.702)" gradientUnits="userSpaceOnUse"><stop stop-color="#002E6C"/><stop offset="1" stop-color="#C2D8FF"/></radialGradient></defs></svg>