<svg width="31" height="39" viewBox="0 0 31 39" fill="none" xmlns="http://www.w3.org/2000/svg">
<path d="M14.1469 17.7857L14.1441 17.784C12.1623 16.5631 9.41798 17.667 8.02572 20.2459C6.63262 22.826 7.11192 25.9207 9.09404 27.1444C9.63671 27.4783 10.2525 27.6523 10.8785 27.6487C11.4061 27.6446 11.9283 27.5359 12.4188 27.3282C13.5556 26.8578 14.5488 25.9189 15.2153 24.6845C16.6083 22.1041 16.129 19.0094 14.1469 17.7857ZM8.75296 20.6946C9.60539 19.1157 11.0343 18.1807 12.3592 18.1807C12.5532 18.1803 12.7467 18.2011 12.9367 18.2428C12.0823 18.8714 10.9369 20.1691 11.2037 22.519C11.4802 24.9557 9.89 25.9752 9.34254 26.2511C7.90913 25.2013 7.63467 22.7658 8.75296 20.6946ZM14.488 24.2352C13.9169 25.2928 13.0744 26.0937 12.1157 26.4904C11.4928 26.7482 10.8718 26.8122 10.3032 26.686C10.5152 26.53 10.714 26.3542 10.8972 26.1609C11.5349 25.4863 12.2502 24.288 12.0372 22.4108C11.7607 19.9753 13.3486 18.956 13.8976 18.6793C15.3309 19.7289 15.6063 22.1639 14.488 24.2352ZM28.1423 2.05038C27.114 0.950862 25.7341 0.30895 24.2808 0.253963C22.8274 0.198977 21.4086 0.735002 20.3101 1.75405C19.2318 0.753116 17.8434 0.21747 16.4158 0.25153C14.9882 0.28559 13.6236 0.886915 12.588 1.93828H4.92132C4.56137 1.93912 4.21151 2.06565 3.92498 2.29863C3.63845 2.5316 3.43092 2.85828 3.33396 3.22896L2.80519 5.26771H2.26088C1.7618 5.26768 1.28054 5.46611 0.910682 5.82443C0.540826 6.18276 0.308808 6.67535 0.259744 7.20644C0.210681 7.73753 0.348078 8.26915 0.64522 8.69793C0.942361 9.12671 1.37801 9.422 1.86745 9.52638L2.29951 15.9137C2.02683 15.9742 1.78398 16.1385 1.61612 16.3761C1.44826 16.6137 1.36683 16.9084 1.38697 17.2054L2.11203 27.902C2.13315 28.1983 2.25355 28.4764 2.45111 28.6852C2.64868 28.8941 2.91011 29.0197 3.18735 29.0389L3.67462 36.2421C3.72292 36.8457 3.98057 37.4081 4.39695 37.8189C4.81333 38.2297 5.35833 38.4591 5.92484 38.462H17.3161C17.8832 38.4589 18.4286 38.2289 18.8451 37.8174C19.2616 37.4059 19.5189 36.8426 19.5666 36.2384L20.0539 29.0339C20.3186 29.0005 20.5643 28.8704 20.7495 28.6654C20.9347 28.4605 21.0479 28.1935 21.0701 27.9095L21.7901 18.0755C22.9059 17.3344 23.9788 16.5217 25.0027 15.642C28.0926 12.9729 29.8363 10.347 30.1856 7.83716C30.4751 5.75643 29.7876 3.80964 28.1423 2.05038ZM4.14314 3.46894C4.19068 3.28723 4.29243 3.12709 4.43289 3.01288C4.57336 2.89868 4.74486 2.83666 4.92132 2.83625H11.8167C11.2308 3.61508 10.8227 4.42557 10.5924 5.26771H3.67665L4.14314 3.46894ZM3.13976 15.8875L2.71225 9.56806H10.8903C11.6485 11.5446 13.2312 13.5802 15.6176 15.6417C15.7143 15.7252 15.8105 15.8068 15.9065 15.8876L3.13976 15.8875ZM1.0899 7.41789C1.09023 7.0859 1.21371 6.76762 1.43324 6.53286C1.65276 6.2981 1.95041 6.16605 2.26088 6.16568H10.416C10.3499 6.72085 10.3561 7.28316 10.4347 7.83649C10.4744 8.11771 10.5302 8.39608 10.6018 8.67002H2.26088C1.95043 8.66965 1.65279 8.53761 1.43326 8.30287C1.21374 8.06813 1.09025 7.74986 1.0899 7.41789ZM18.7293 36.1695C18.699 36.5486 18.5372 36.9018 18.2757 37.1598C18.0142 37.4178 17.6719 37.5618 17.3161 37.5637H5.92484C5.5696 37.5621 5.22776 37.4185 4.96636 37.1613C4.70497 36.9041 4.5429 36.5517 4.51194 36.1733L4.02956 29.0419H19.2114L18.7293 36.1695ZM20.2327 27.839C20.2262 27.9219 20.191 27.9993 20.1338 28.0558C20.0767 28.1123 20.0018 28.1439 19.924 28.1443H3.25845C3.18033 28.144 3.10517 28.1123 3.04794 28.0554C2.99071 27.9986 2.95561 27.9207 2.94963 27.8375L2.22477 17.1409C2.22172 17.0955 2.22743 17.05 2.24157 17.0071C2.2557 16.9641 2.27794 16.9248 2.30692 16.8915C2.33589 16.8582 2.37097 16.8316 2.40997 16.8134C2.44897 16.7953 2.49105 16.7859 2.5336 16.7858H17.0253C18.0143 17.5491 19.0452 18.2482 20.1126 18.8794C20.1734 18.914 20.2413 18.9322 20.3102 18.9322C20.3791 18.9322 20.447 18.914 20.5078 18.8794C20.5295 18.8669 20.6719 18.7851 20.9067 18.6414L20.2327 27.839ZM29.3552 7.70329C28.6588 12.7139 21.5903 17.1958 20.3101 17.9695C19.03 17.1966 11.963 12.7186 11.2653 7.70426C11.0172 5.92105 11.6249 4.23213 13.0718 2.68531C13.9923 1.70103 15.2408 1.14807 16.5425 1.14807C17.8443 1.14807 19.0928 1.70103 20.0133 2.68531C20.092 2.76951 20.1988 2.81681 20.3102 2.81681C20.4215 2.81681 20.5283 2.76951 20.6071 2.68531C21.5276 1.70104 22.776 1.14807 24.0778 1.14807C25.3795 1.14807 26.628 1.70104 27.5485 2.68531C28.995 4.23221 29.603 5.92046 29.3552 7.70329Z" fill="#002E6C" stroke="#002E6C" stroke-width="0.5"/>
</svg>
