<?xml version="1.0" standalone="no"?>
<!DOCTYPE svg PUBLIC "-//W3C//DTD SVG 20010904//EN"
 "http://www.w3.org/TR/2001/REC-SVG-20010904/DTD/svg10.dtd">
<svg version="1.0" xmlns="http://www.w3.org/2000/svg"
 width="220.000000pt" height="220.000000pt" viewBox="0 0 220.000000 220.000000"
 preserveAspectRatio="xMidYMid meet">

<g transform="translate(0.000000,220.000000) scale(0.100000,-0.100000)"
fill="#002e6c" stroke="none">
<path d="M250 2140 c-88 -17 -155 -74 -185 -159 -19 -55 -19 -84 1 -152 15
-51 34 -72 355 -394 l339 -341 -281 -279 c-350 -349 -403 -409 -419 -477 -25
-102 27 -216 119 -265 53 -28 151 -31 209 -8 25 11 148 127 374 353 l338 337
332 -332 c362 -361 381 -376 483 -375 71 1 129 27 175 79 44 50 60 94 60 163
0 91 -25 122 -374 470 -179 179 -326 329 -326 335 0 6 147 156 326 335 250
250 332 337 350 375 42 88 28 185 -38 259 -45 52 -104 78 -173 79 -101 0 -121
-16 -482 -376 l-333 -331 -343 341 c-258 257 -351 343 -377 351 -55 16 -92 19
-130 12z"/>
</g>
</svg>
