<svg width="123" height="58" viewBox="0 0 123 58" fill="none" xmlns="http://www.w3.org/2000/svg">
<path d="M102.639 0H0C0 28.34 23.021 51.361 51.361 51.361C78.3712 51.361 100.561 30.4177 102.556 3.90609L102.722 0.0831063L102.639 0Z" fill="white"/>
<path d="M120.341 20.1125C121.172 15.7908 120.59 6.64893 106.379 6.64893H97.8186V10.4719C97.1538 19.6138 90.8532 30.0319 86.033 37.1793C86.033 37.1793 99.8132 37.399 106.213 34.9889C112.363 32.6619 118.679 29.0051 120.341 20.0294V20.1125Z" stroke="white" stroke-width="4" stroke-miterlimit="10"/>
<path d="M88.0949 6.64893C84.7705 24.351 69.3124 37.6484 50.6961 37.6484C37.9805 37.6484 26.6778 31.4152 19.7798 21.7747C25.6805 35.2382 39.0609 44.7126 54.6853 44.7126C74.7144 44.7126 91.1699 29.1713 92.6658 9.47461V6.64893H88.0949Z" fill="#DDF0FC"/>
<path d="M101.476 53.3555C101.476 55.3501 99.8134 57.0123 97.8188 57.0123H14.6273C12.6327 57.0123 10.9706 55.3501 10.9706 53.3555C10.9706 51.3609 12.6327 49.6987 14.6273 49.6987H97.8188C99.8134 49.6987 101.476 51.3609 101.476 53.3555Z" fill="white"/>
</svg>
