<svg width="72" height="109" viewBox="0 0 72 109" fill="none" xmlns="http://www.w3.org/2000/svg">
<path fill-rule="evenodd" clip-rule="evenodd" d="M58.0352 96.6429H5.72205e-05V77.1318H58.0352V96.6429ZM47.2418 80.785H11.8728V85.1023C11.8728 88.0913 14.3635 90.582 17.3525 90.582H41.6791C44.668 90.582 47.1588 88.0913 47.1588 85.1023V80.785H47.2418Z" fill="white"/>
<path fill-rule="evenodd" clip-rule="evenodd" d="M71.8175 77.1318V96.6429H60.443V77.1318H71.8175Z" fill="white"/>
<path fill-rule="evenodd" clip-rule="evenodd" d="M0.000114441 10.4613C0.000114441 4.73248 4.73259 0 10.4614 0H61.3563C67.0851 0 71.8175 4.73248 71.8175 10.4613V74.7233H0.000114441V10.4613ZM13.6994 7.97049H45.4983C48.6533 7.97049 51.2271 10.5443 51.2271 13.6993V62.1864C51.2271 65.3414 48.6533 67.9152 45.4983 67.9152H13.6994C10.5444 67.9152 7.9706 65.3414 7.9706 62.1864V13.6993C7.9706 10.5443 10.5444 7.97049 13.6994 7.97049ZM60.8581 14.9447H62.2696C64.0131 14.9447 65.4245 16.3561 65.4245 18.0997V32.5462C65.4245 34.2897 64.0131 35.7012 62.2696 35.7012H60.8581C59.1146 35.7012 57.7031 34.2897 57.7031 32.5462V18.0997C57.7031 16.3561 59.1146 14.9447 60.8581 14.9447ZM59.2806 41.3469H63.764C65.4245 41.3469 66.836 42.7584 66.836 44.4189V45.8303C66.836 47.4908 65.4245 48.9023 63.764 48.9023H59.2806C57.6201 48.9023 56.2087 47.4908 56.2087 45.8303V44.4189C56.2087 42.7584 57.6201 41.3469 59.2806 41.3469ZM59.2806 53.9669H63.764C65.4245 53.9669 66.836 55.3783 66.836 57.0388V58.4503C66.836 60.1108 65.4245 61.5222 63.764 61.5222H59.2806C57.6201 61.5222 56.2087 60.1108 56.2087 58.4503V57.0388C56.2087 55.3783 57.6201 53.9669 59.2806 53.9669Z" fill="white"/>
<path fill-rule="evenodd" clip-rule="evenodd" d="M7.24792e-05 99.0503H10.4613V104.53C10.4613 106.772 8.63477 108.598 6.39307 108.598H4.15137C1.90967 108.598 0.0831003 106.772 0.0831003 104.53V99.0503H7.24792e-05Z" fill="white"/>
<path fill-rule="evenodd" clip-rule="evenodd" d="M61.3563 99.0503H71.8175V104.53C71.8175 106.772 69.991 108.598 67.7493 108.598H65.5076C63.2659 108.598 61.4393 106.772 61.4393 104.53V99.0503H61.3563Z" fill="white"/>
<path d="M7.38938 27.98H51.8913V31.6331H7.38938V27.98Z" fill="white"/>
<path d="M7.38938 47.9893H51.8913V51.6424H7.38938V47.9893Z" fill="white"/>
<path fill-rule="evenodd" clip-rule="evenodd" d="M13.8654 28.5613H21.0887V18.5151C21.0887 17.2697 20.0924 16.2734 18.847 16.2734H16.1071C14.8617 16.2734 13.8654 17.2697 13.8654 18.5151V28.5613Z" fill="white"/>
<path fill-rule="evenodd" clip-rule="evenodd" d="M25.9871 28.5613H33.2104V18.5151C33.2104 17.2697 32.2141 16.2734 30.9687 16.2734H28.2288C26.9834 16.2734 25.9871 17.2697 25.9871 18.5151V28.5613Z" fill="white"/>
<path fill-rule="evenodd" clip-rule="evenodd" d="M38.1089 28.5613H45.3322V18.5151C45.3322 17.2697 44.3359 16.2734 43.0905 16.2734H40.3506C39.1052 16.2734 38.1089 17.2697 38.1089 18.5151V28.5613Z" fill="white"/>
<path fill-rule="evenodd" clip-rule="evenodd" d="M13.8654 48.5705H21.0887V38.5244C21.0887 37.279 20.0924 36.2827 18.847 36.2827H16.1071C14.8617 36.2827 13.8654 37.279 13.8654 38.5244V48.5705Z" fill="white"/>
<path fill-rule="evenodd" clip-rule="evenodd" d="M25.9871 48.5705H33.2104V38.5244C33.2104 37.279 32.2141 36.2827 30.9687 36.2827H28.2288C26.9834 36.2827 25.9871 37.279 25.9871 38.5244V48.5705Z" fill="white"/>
<path fill-rule="evenodd" clip-rule="evenodd" d="M38.1089 48.5705H45.3322V38.5244C45.3322 37.279 44.3359 36.2827 43.0905 36.2827H40.3506C39.1052 36.2827 38.1089 37.279 38.1089 38.5244V48.5705Z" fill="white"/>
</svg>
