<svg width="79" height="105" viewBox="0 0 79 105" fill="none" xmlns="http://www.w3.org/2000/svg">
<path d="M45.7596 29.0076C45.2942 13.0306 40.1754 0.15584 34.2809 0.310957L35.5994 46.691V104.782C40.0978 104.782 43.8982 100.517 44.984 91.0545C45.9923 83.1435 41.4939 61.5822 40.7183 54.8346C43.9757 49.9484 46.0698 40.1761 45.7596 28.9301V29.0076Z" fill="white"/>
<path d="M75.1543 0.465351C73.448 0.465351 72.1295 1.78385 72.0519 3.41258L71.7417 22.1042H69.1823L69.4925 3.33502C69.4925 1.62873 68.174 0.310236 66.5453 0.232677C64.839 0.232677 63.5205 1.55117 63.4429 3.1799L63.1327 21.8715H60.5733L60.8835 3.10234C60.8835 1.39605 59.565 0.0775585 57.8587 0C56.1524 0 54.834 1.3185 54.7564 2.94723L54.4462 21.6388C54.291 30.2478 59.4099 37.3832 65.8473 37.4608C72.2846 37.5383 77.6362 30.6356 77.7137 22.0266L78.024 3.33502C78.024 1.62873 76.7055 0.310236 74.9992 0.232677L75.1543 0.465351Z" fill="white"/>
<path d="M63.9859 30.0927H68.0965C68.0965 30.0927 71.4315 93.3805 71.5091 93.9234C71.6642 94.4663 73.2153 104.859 66.3126 104.859C59.3324 104.859 61.1162 93.6131 61.1162 93.6131L64.0634 30.0151L63.9859 30.0927Z" fill="white"/>
<path d="M11.4011 30.0922H15.5117C15.5117 30.0922 18.8467 93.38 18.9243 93.9229C19.0794 94.4658 20.6306 104.859 13.7279 104.859C6.74759 104.859 8.53143 93.6127 8.53143 93.6127L11.4787 30.0146L11.4011 30.0922Z" fill="white"/>
<path d="M27.4557 23.965C27.4557 31.5657 21.3286 37.6929 13.7279 37.6929C6.12712 37.6929 1.90735e-06 31.5657 1.90735e-06 23.965C1.90735e-06 16.3643 3.10234 0.387207 13.7279 0.387207C24.3534 0.387207 27.4557 16.4418 27.4557 23.965Z" fill="white"/>
<path d="M7.44561 28.2313C7.21294 22.8022 8.99679 11.1684 16.6751 10.8582C19.3896 10.7806 21.4837 12.0991 23.0349 14.1932C21.5613 9.38457 18.6916 4.6535 13.8054 4.88617C6.12712 5.19641 4.42083 16.8302 4.57594 22.2593C4.6535 24.8963 5.81688 27.223 7.52317 28.9293C7.52317 28.6966 7.52317 28.464 7.52317 28.3089L7.44561 28.2313Z" fill="#DDF0FC"/>
</svg>
