<svg xmlns="http://www.w3.org/2000/svg" width="36" height="36" fill="none"><path fill="#002E6C" stroke="#002E6C" stroke-width=".5" d="M30.766 29.146a17.3 17.3 0 0 0 3.567-6.071 17.42 17.42 0 0 0-1.135-13.78 17.2 17.2 0 0 0-4.51-5.389C27.132 1.23 24.631.3 22.746.871a16.8 16.8 0 0 0-7.13-.417 16.85 16.85 0 0 0-6.67 2.588l-2.318-.546a1.08 1.08 0 0 0-1.14.435 1.1 1.1 0 0 0-.176.396l-.959 4.175a17.34 17.34 0 0 0-3.069 8.124c-.32 2.93.11 5.892 1.246 8.606l-2.198 8.14a2.28 2.28 0 0 0 1.231 2.672 2.22 2.22 0 0 0 2.511-.449c.324-.323.544-.74.63-1.192l.83-4.43a16.93 16.93 0 0 0 10.186 5.572c3.934.593 7.95-.23 11.346-2.327a2.2 2.2 0 0 0 1.77.904c.456.003.901-.133 1.278-.392.377-.258.667-.626.833-1.055s.2-.899.096-1.348zm-.207-.875-.937-4.01a13.5 13.5 0 0 0 1.818-6.667 13.5 13.5 0 0 0-1.72-6.695 9.43 9.43 0 0 0-.277-5.365 16.57 16.57 0 0 1 5.059 11.142 16.6 16.6 0 0 1-3.944 11.595ZM5.168 17.383l1.733.406-.817 4.345c-.408-.1-.062 0-2.074-.487a704 704 0 0 1 1.159-4.264Zm2.516.229a1.496 1.496 0 0 1 .886-.997 3.9 3.9 0 0 0 1.485-1.09 3.96 3.96 0 0 0 .827-1.657l1.764-7.687a12.3 12.3 0 0 1 6.562-1.293c-1.02 3.759.693 8.263 3.74 9.81.39.188.73.468.99.816.26.349.433.755.506 1.186.266 1.764 1.345 8.88 1.611 10.64a12.4 12.4 0 0 1-5.137 2.502 12.3 12.3 0 0 1-5.7-.072 12.4 12.4 0 0 1-5.073-2.63 12.6 12.6 0 0 1-3.39-4.64c.98-5.232.89-4.785.93-4.903zm17.135-2.053 2.104-.414c-.055.794 0 .739.827 4.338l-2.089.395c-.528-3.489-.488-3.603-.842-4.341zm2.884.513a2.77 2.77 0 0 1 .642-2.426 6.2 6.2 0 0 0 1.071-1.78 12.78 12.78 0 0 1-.032 11.328c-.832-3.5.371 1.632-1.681-7.137zM26.41 2.41c2.26 1.687 3.47 5.501 2.526 8.621-.583 1.964-1.382 2.038-1.823 3.323l-2.745.543a3.5 3.5 0 0 0-1.094-.846c-3.058-1.554-4.608-6.516-2.949-10.031 1.258-2.677 3.872-3.334 6.085-1.64zm-4.762-1.052a5.62 5.62 0 0 0-2.187 2.81c-2.26-.213-4.535.168-6.606 1.107l.037-.155a1.12 1.12 0 0 0-.137-.84 1.1 1.1 0 0 0-.684-.493l-2.122-.51a16.07 16.07 0 0 1 11.7-1.92ZM6.02 3.493a.37.37 0 0 1 .132-.21.36.36 0 0 1 .233-.078q.646.105 1.276.288c-.204.912 0 .048-1.823 7.997a.37.37 0 0 0 .127.411.363.363 0 0 0 .58-.245c.73-3.234 1.491-6.51 1.823-7.993.904.214.536.129 1.626.369l-.85 3.751c-.404 1.772-.189.842-.976 4.264a.37.37 0 0 0 .127.412.363.363 0 0 0 .58-.245c1.094-4.737.838-3.663 1.203-5.247l.627-2.747c.037 0-.073-.018 1.2.28a.36.36 0 0 1 .23.168.37.37 0 0 1 .043.283c-.478 2.068.642-2.795-2.005 8.743a3.2 3.2 0 0 1-.675 1.337 3.16 3.16 0 0 1-1.203.878 2.27 2.27 0 0 0-1.192 1.149l-1.804-.414a2.3 2.3 0 0 0-.57-1.562 3.245 3.245 0 0 1-.73-2.843C5.51 5.72 5.23 6.95 6.02 3.493ZM3.832 9.74l-.529 2.33c-.14.612-.132 1.249.02 1.858a3.96 3.96 0 0 0 .859 1.642 1.54 1.54 0 0 1 .364 1.307c-.021.129-1.658 6.129-1.67 6.166A16.67 16.67 0 0 1 3.84 9.74zm.157 23.519a1.55 1.55 0 0 1-.669.981 1.5 1.5 0 0 1-1.16.202 1.5 1.5 0 0 1-.954-.701 1.55 1.55 0 0 1-.17-1.18l2.781-10.216 2.13.498c-1.222 6.517-.792 4.224-1.958 10.416ZM5.72 28.06l.802-4.342c.891 1.719 2.14 3.22 3.662 4.401a13.1 13.1 0 0 0 5.149 2.436c1.87.424 3.809.431 5.682.02a13.1 13.1 0 0 0 5.165-2.4c.51 3.367.47 3.175.547 3.4a16.1 16.1 0 0 1-11.15 2.202A16.24 16.24 0 0 1 5.72 28.06Zm24.426 3.637c-.164.258-.4.46-.68.58a1.5 1.5 0 0 1-1.668-.33 1.54 1.54 0 0 1-.415-.796c0-.085-.157-1.016-.532-3.508-.182-1.174 0 0-1.065-7.015l2.148-.428c.97 4.135 2.056 8.805 2.413 10.338a1.54 1.54 0 0 1-.2 1.159Z"/></svg>