<svg xmlns="http://www.w3.org/2000/svg" width="154" height="63" fill="none"><mask id="a" width="37" height="30" x="76" y="0" maskUnits="userSpaceOnUse" style="mask-type:luminance"><path fill="#fff" d="M90.556 12.91c.547.727 1.101 1.458 1.652 2.199 3.773 4.976 7.28 9.905 11.23 12.726a7.15 7.15 0 0 0 4.117 1.333c.717 0 1.437-.116 2.131-.354a11.2 11.2 0 0 0 3.117-1.665c-3.6-2.883-6.856-7.441-10.337-12.04-2.291-3.015-4.473-6.01-6.723-8.532-1.75 1.846-3.457 4.042-5.19 6.333M76.51 0c-.157 0-.177.224-.017.262 2.62.608 4.966 2.23 7.226 4.436C85.2 3.14 86.728 1.79 88.353.772 87.126.279 85.845 0 84.5 0z"/></mask><g mask="url(#a)"><path fill="url(#b)" d="M112.807 0H76.334v29.168h36.473z"/></g><mask id="c" width="43" height="31" x="61" y="0" maskUnits="userSpaceOnUse" style="mask-type:luminance"><path fill="#fff" d="M94.991 0c-7.094.007-12.216 7.502-17.97 15.109-5.137 6.778-9.763 13.457-15.718 14.84-.163.038-.146.27.017.27h7.98c7.088 0 12.21-7.506 17.972-15.11 5.13-6.778 9.749-13.46 15.711-14.847.163-.038.146-.262-.014-.262h-7.981z"/></mask><g mask="url(#c)"><path fill="url(#d)" d="M103.149 0h-42.01v30.218h42.01z"/></g><mask id="e" width="38" height="30" x="99" y="1" maskUnits="userSpaceOnUse" style="mask-type:luminance"><path fill="#fff" d="M124.299 29.447c1.227.492 2.505.771 3.854.771h7.974c.17 0 .184-.23.017-.268-2.607-.602-4.966-2.23-7.219-4.43-1.472 1.557-3.008 2.907-4.626 3.927M102.956 1.404a11.4 11.4 0 0 0-3.117 1.652c3.599 2.886 6.856 7.444 10.336 12.053 2.284 3.015 4.48 6.006 6.724 8.535 1.743-1.852 3.457-4.041 5.197-6.339-.547-.717-1.101-1.458-1.659-2.196-3.773-4.983-7.274-9.912-11.23-12.733-1.214-.86-2.655-1.332-4.107-1.332-.72 0-1.444.115-2.141.357"/></mask><g mask="url(#e)"><path fill="url(#f)" d="M136.308 1.047H99.835v29.175h36.473z"/></g><mask id="g" width="43" height="31" x="109" y="0" maskUnits="userSpaceOnUse" style="mask-type:luminance"><path fill="#fff" d="M143.34 0c-7.08.007-12.209 7.502-17.964 15.109-5.129 6.778-9.762 13.457-15.724 14.84-.153.038-.146.27.017.27h7.981c7.087-.015 12.216-7.506 17.978-15.11 5.129-6.778 9.762-13.46 15.711-14.847.159-.038.146-.262-.024-.262z"/></mask><g mask="url(#g)"><path fill="url(#h)" d="M151.495 0h-41.996v30.218h41.996z"/></g><path fill="#575756" d="M18.359 60.137c0 .574-.218.941-.646 1.111a15 15 0 0 1-4.178 1.16c-1.502.2-2.937.302-4.313.302-1.863 0-3.376-.194-4.565-.581-1.19-.391-2.128-.911-2.815-1.57A5.27 5.27 0 0 1 .408 58.28 8.9 8.9 0 0 1 0 55.569c0-.949.163-1.928.493-2.86a6.1 6.1 0 0 1 1.604-2.447c.745-.706 1.707-1.274 2.896-1.703q1.784-.644 4.355-.645h5.23v-.932c0-.683-.06-1.291-.186-1.835a3.15 3.15 0 0 0-.758-1.4c-.37-.398-.894-.708-1.564-.918-.673-.218-1.536-.32-2.593-.32q-1.501 0-3.195.258-1.698.256-2.767.599c-.228.092-.415.115-.561.092q-.21-.047-.303-.395l-.51-1.842a.56.56 0 0 1-.023-.405c.044-.132.18-.234.404-.32 1.091-.458 2.339-.78 3.736-.965a29 29 0 0 1 3.858-.278c2.855 0 4.949.635 6.264 1.907 1.312 1.274 1.975 3.124 1.975 5.547v13.43zm-3.818-8.96h-4.98q-.769-.002-1.777.098a5.4 5.4 0 0 0-1.907.561 4.1 4.1 0 0 0-1.523 1.33c-.414.58-.625 1.4-.625 2.423q0 1.153.428 1.951c.292.53.677.941 1.163 1.244s1.057.513 1.713.646c.663.126 1.376.194 2.145.194.261 0 .594-.01 1.01-.024.414-.017.87-.055 1.369-.133q.749-.106 1.523-.255a9.6 9.6 0 0 0 1.461-.404zM33.519 60.565c-.228.683-.476 1.173-.745 1.462-.275.279-.734.425-1.4.425h-1.666q-.82-.002-1.288-.34c-.31-.235-.615-.731-.9-1.5l-7.03-20.458c-.085-.286.027-.425.343-.425h2.876q.465-.002.602.384l4.027 11.836 2.145 6.985h.214l2.057-6.9 3.905-11.921c.089-.262.282-.384.595-.384h2.839c.282 0 .4.14.343.425l-6.907 20.415zM51.446 39.253c1.624 0 3.035.23 4.225.69 1.176.455 2.151 1.101 2.913 1.948q1.136 1.261 1.689 3c.377 1.16.554 2.442.554 3.839 0 .683-.078 1.244-.255 1.679q-.255.641-.704 1.002a2.8 2.8 0 0 1-1.03.514 4.8 4.8 0 0 1-1.227.156H45.264c0 1.336.187 2.488.564 3.426.377.942.87 1.71 1.485 2.295a5.5 5.5 0 0 0 2.148 1.268c.823.255 1.703.38 2.652.38.948 0 1.88-.115 2.797-.357q1.381-.373 2.278-.84c.35-.203.615-.125.819.218l.897 1.802q.3.598-.251.853a9.8 9.8 0 0 1-3.321 1.268c-1.19.21-2.356.32-3.501.32-1.601 0-3.036-.232-4.307-.684q-1.916-.687-3.24-2.107c-.887-.942-1.56-2.145-2.035-3.6q-.71-2.191-.71-5.228c0-1.89.247-3.576.757-5.044.493-1.468 1.193-2.706 2.08-3.708.888-1.003 1.92-1.771 3.127-2.291q1.8-.796 3.947-.796m5.874 9.817c0-.884-.089-1.74-.266-2.55a5.5 5.5 0 0 0-.92-2.144c-.443-.616-1.051-1.105-1.812-1.462s-1.71-.53-2.863-.53c-.941 0-1.784.187-2.518.55a5.7 5.7 0 0 0-1.846 1.476 7.1 7.1 0 0 0-1.19 2.12 9.4 9.4 0 0 0-.513 2.533H57.32zM73.9 50.144l7.509 11.492a.85.85 0 0 1 .085.39q-.002.211-.34.212h-3.127c-.31 0-.53-.048-.646-.147a1.5 1.5 0 0 1-.303-.367l-5.353-8.664-5.49 8.627a2 2 0 0 1-.364.404c-.132.102-.333.147-.622.147h-2.743c-.428 0-.527-.211-.302-.646l7.464-11.275-6.482-9.946c-.081-.109-.112-.248-.081-.408.027-.156.152-.234.384-.234h2.872c.289 0 .496.054.622.146.132.102.238.22.326.37l4.586 7.366 4.633-7.366c.115-.146.24-.268.363-.37.126-.092.306-.146.537-.146h2.784q.387-.001.408.217a.5.5 0 0 1-.061.337l-6.652 9.86zM89.043 33.722a2.42 2.42 0 0 1-.728 1.764 2.42 2.42 0 0 1-1.764.725c-.69 0-1.274-.242-1.777-.724-.5-.49-.755-1.071-.755-1.765 0-.693.252-1.312.755-1.794.5-.49 1.09-.731 1.777-.731q1.03-.002 1.764.73.726.725.728 1.795m-.687 27.87c0 .289-.054.465-.15.537-.101.078-.278.108-.536.108h-2.315c-.231 0-.408-.03-.534-.108-.136-.072-.2-.248-.2-.537V40.368c0-.286.064-.463.2-.53.126-.079.303-.11.534-.11h2.315c.255 0 .435.031.537.11.095.07.15.244.15.53zM116.787 39.253c1.754 0 3.222.255 4.402.754 1.196.493 2.158 1.217 2.902 2.142.745.931 1.278 2.036 1.608 3.317.33 1.292.493 2.713.493 4.253v11.92q0 .382-.156.49c-.096.078-.265.109-.493.109h-2.386c-.235 0-.412-.031-.524-.11-.119-.07-.17-.234-.17-.489V50.317q.001-3.988-1.4-5.853-1.39-1.867-4.82-1.867c-.428 0-.891.038-1.394.102a20 20 0 0 0-1.519.303 15 15 0 0 0-1.486.459c-.469.163-.89.35-1.261.55.401.833.667 1.734.792 2.72.133.986.191 2.12.191 3.41v11.492c0 .255-.051.418-.167.489-.115.078-.299.109-.557.109h-2.312c-.234 0-.401-.03-.513-.109q-.178-.106-.177-.49V50.1c0-1.172-.095-2.223-.268-3.154-.191-.925-.527-1.717-1.017-2.362-.482-.636-1.145-1.125-1.988-1.476-.847-.34-1.934-.513-3.28-.513-.374 0-.949.024-1.717.061-.771.041-1.499.14-2.185.279v18.699q0 .383-.15.489c-.102.078-.279.109-.54.109h-2.312c-.231 0-.411-.03-.537-.109q-.195-.106-.194-.49v-18.65c0-.864.187-1.53.554-2.02.374-.489.891-.856 1.547-1.114.66-.255 1.448-.422 2.366-.49a40 40 0 0 1 3.005-.109q2.62 0 4.354.558a8.4 8.4 0 0 1 3.117 1.798h.041c1.064-.744 2.284-1.322 3.674-1.737 1.387-.411 2.886-.622 4.483-.622M148 60.137c0 .574-.214.941-.645 1.111a14.9 14.9 0 0 1-4.178 1.16q-2.25.301-4.31.302c-1.866 0-3.385-.194-4.568-.581-1.187-.391-2.125-.911-2.815-1.57a5.4 5.4 0 0 1-1.434-2.278 9 9 0 0 1-.408-2.712c0-.949.163-1.928.496-2.86.33-.93.86-1.746 1.601-2.447.741-.706 1.713-1.274 2.903-1.703q1.777-.644 4.351-.645h5.231v-.932a8.2 8.2 0 0 0-.19-1.835 3.1 3.1 0 0 0-.758-1.4c-.367-.398-.891-.708-1.564-.918-.666-.218-1.54-.32-2.593-.32a20.5 20.5 0 0 0-3.192.258q-1.703.256-2.767.599c-.231.092-.418.115-.564.092-.14-.031-.242-.164-.296-.395l-.517-1.842a.62.62 0 0 1-.024-.405c.045-.132.184-.234.408-.32 1.091-.458 2.332-.78 3.733-.965a29 29 0 0 1 3.858-.278q4.287 0 6.261 1.907 1.977 1.912 1.975 5.547v13.43zm-3.82-8.96h-4.97q-.774-.002-1.784.098a5.5 5.5 0 0 0-1.914.561 4.16 4.16 0 0 0-1.519 1.33c-.415.58-.616 1.4-.616 2.423q-.001 1.153.425 1.951c.286.53.677.941 1.156 1.244.483.303 1.057.513 1.717.646.652.126 1.373.194 2.144.194.252 0 .595-.01 1.003-.024.415-.017.874-.055 1.373-.133.5-.071 1.013-.156 1.527-.255a9 9 0 0 0 1.451-.404v-7.631zM153.997 33.658c0 .35-.058.666-.187.972q-.198.446-.524.785a2.4 2.4 0 0 1-.785.53 2.3 2.3 0 0 1-.952.194c-.336 0-.676-.061-.975-.194a2.4 2.4 0 0 1-.792-.53 2.7 2.7 0 0 1-.517-.785 2.7 2.7 0 0 1-.187-.972c0-.35.072-.677.187-.986.133-.302.299-.568.517-.792.231-.234.486-.404.792-.537.299-.126.629-.187.975-.187.347 0 .677.061.976.187.299.133.557.303.775.537q.33.337.513.792c.129.31.187.636.187.986m-.445 0q0-.442-.153-.823a2 2 0 0 0-.428-.66 1.8 1.8 0 0 0-.629-.451 2.145 2.145 0 0 0-1.601 0 1.9 1.9 0 0 0-.639.452 1.9 1.9 0 0 0-.425.66 2.1 2.1 0 0 0-.157.822c0 .279.048.55.157.799.095.248.241.465.425.66a2.02 2.02 0 0 0 1.448.597 1.9 1.9 0 0 0 .792-.163c.248-.109.459-.248.629-.435a2.1 2.1 0 0 0 .581-1.458m-2.58 1.377-.027.085-.092.013h-.252l-.074-.014-.024-.084v-2.652c0-.17.085-.255.241-.255h.972c.276 0 .507.085.673.242.17.17.262.38.262.628a.83.83 0 0 1-.126.429.96.96 0 0 1-.319.32.46.46 0 0 1 .234.18q.064.117.099.254l.245.833v.072l-.096.054h-.268c-.065 0-.095-.03-.106-.092l-.227-.785q-.06-.22-.201-.303a.66.66 0 0 0-.336-.078h-.571v1.16zm1.213-2.013a.5.5 0 0 0-.108-.31c-.082-.101-.211-.145-.405-.145h-.7v.907h.669q.287 0 .415-.132a.4.4 0 0 0 .129-.32"/><defs><linearGradient id="b" x1="95.934" x2="95.934" y1="1.369" y2="30.653" gradientUnits="userSpaceOnUse"><stop stop-color="#83D0F5"/><stop offset=".34" stop-color="#4BBBED"/><stop offset=".63" stop-color="#22ABE7"/><stop offset=".86" stop-color="#09A2E4"/><stop offset="1" stop-color="#009FE3"/></linearGradient><linearGradient id="d" x1="80.022" x2="80.022" y1="-2.36" y2="27.976" gradientUnits="userSpaceOnUse"><stop stop-color="#F39DAA"/><stop offset=".13" stop-color="#F0829C"/><stop offset=".42" stop-color="#EB4A81"/><stop offset=".68" stop-color="#E8226C"/><stop offset=".88" stop-color="#E50960"/><stop offset="1" stop-color="#E5005C"/></linearGradient><linearGradient id="f" x1="117.401" x2="117.401" y1="29.62" y2=".336" gradientUnits="userSpaceOnUse"><stop stop-color="#F39DAA"/><stop offset=".13" stop-color="#F0829C"/><stop offset=".42" stop-color="#EB4A81"/><stop offset=".68" stop-color="#E8226C"/><stop offset=".88" stop-color="#E50960"/><stop offset="1" stop-color="#E5005C"/></linearGradient><linearGradient id="h" x1="132.644" x2="132.644" y1="32.476" y2="2.515" gradientUnits="userSpaceOnUse"><stop stop-color="#83D0F5"/><stop offset=".34" stop-color="#4BBBED"/><stop offset=".63" stop-color="#22ABE7"/><stop offset=".86" stop-color="#09A2E4"/><stop offset="1" stop-color="#009FE3"/></linearGradient></defs></svg>