<svg width="38" height="38" viewBox="0 0 38 38" fill="none" xmlns="http://www.w3.org/2000/svg">
<g clip-path="url(#clip0_431_104)">
<path d="M26.1174 6.98047L25.6521 8.15066C27.2725 8.75251 28.6995 9.78277 29.7805 11.1316L30.7763 10.3634C29.5582 8.83462 27.9479 7.66536 26.1174 6.98047Z" fill="#002E6C"/>
<path d="M31.6544 11.7275L30.5396 12.3149C30.745 12.7052 30.9197 13.1109 31.0618 13.5282L32.2541 13.1207C32.0902 12.6415 31.8896 12.1756 31.6544 11.7275Z" fill="#002E6C"/>
<path d="M4.33504 19.1812C5.40835 20.6051 7.0866 21.4441 8.87002 21.4484H29.0249C30.808 21.4441 32.4863 20.6051 33.5596 19.1812L35.6383 16.4097H37.8427V15.15H35.3073C35.0032 8.37369 29.7732 3.97556 21.3484 3.28268C21.6778 2.24627 21.3051 1.11545 20.424 0.477916C19.5429 -0.159305 18.3521 -0.159305 17.471 0.477916C16.5896 1.11545 16.2168 2.24627 16.5465 3.28268C8.12178 3.97556 2.89145 8.37369 2.58729 15.15H0.0522461V16.4097H2.25669L4.33504 19.1812ZM32.5518 18.4253C31.7171 19.5328 30.4116 20.1854 29.0249 20.1887H8.87002C7.48302 20.1854 6.17782 19.5328 5.34285 18.4253L3.83129 16.4097H34.0637L32.5518 18.4253ZM17.6878 2.55319C17.6878 1.85754 18.2518 1.29351 18.9475 1.29351C19.6431 1.29351 20.2072 1.85754 20.2072 2.55319C20.2072 2.78323 20.1435 3.00835 20.0226 3.20395C19.6687 3.19134 19.3113 3.18303 18.9475 3.18303C18.5833 3.18303 18.2263 3.19134 17.8723 3.20395C17.7515 3.00835 17.6875 2.78323 17.6878 2.55319ZM18.9475 4.44272C26.0676 4.44272 33.6605 7.2727 34.0452 15.15H3.84944C4.23417 7.2727 11.8301 4.44272 18.9475 4.44272Z" fill="#002E6C"/>
<path d="M2.57145 8.22192H3.83113V6.96223H5.09081V5.70255H3.83113V4.44287H2.57145V5.70255H1.31177V6.96223H2.57145V8.22192Z" fill="#002E6C"/>
<path d="M33.4338 4.44262H34.6934V3.18294H35.9531V1.92326H34.6934V0.663574H33.4338V1.92326H32.1741V3.18294H33.4338V4.44262Z" fill="#002E6C"/>
<path d="M37.6 22.6452C36.8985 21.4473 35.3642 21.0364 34.158 21.7229L28.7828 24.8244C28.6656 24.5461 28.4971 24.2924 28.2858 24.0768C27.815 23.6025 27.1738 23.3365 26.5055 23.3378H17.0579C16.9505 23.3378 16.8454 23.3651 16.7516 23.4171L12.5859 25.735L11.8835 23.8064C11.7651 23.4792 11.4041 23.3101 11.0768 23.4285L5.15639 25.5825C4.99893 25.6394 4.87069 25.7566 4.79995 25.9079C4.72891 26.0595 4.72122 26.2329 4.77843 26.3901L4.9937 26.9815L0.852685 28.4906C0.695225 28.5475 0.566981 28.6643 0.496247 28.816C0.425205 28.9676 0.417517 29.1407 0.474719 29.2982L3.4923 37.5842C3.6107 37.9114 3.97206 38.0806 4.29897 37.9622L8.44276 36.4543L8.65834 37.0457C8.77644 37.3729 9.1378 37.5421 9.46502 37.4237L15.3855 35.2691C15.7127 35.1507 15.8818 34.7893 15.7634 34.4621L15.609 34.0451H22.7264C22.8368 34.0451 22.9454 34.0161 23.0414 33.9608L36.6773 26.0878C37.461 25.6412 37.9426 24.8066 37.937 23.9049C37.9364 23.4626 37.8205 23.0284 37.6 22.6452ZM4.46105 36.5644L1.87864 29.4624L5.42949 28.1701L8.01528 35.2721L4.46105 36.5644ZM9.62556 36.0253L6.17988 26.55L10.9141 24.8262L14.3607 34.2972L9.62556 36.0253ZM36.0475 24.9969L22.5576 32.7854H15.1505L13.0211 26.9341L17.2209 24.5974H26.5055C26.8395 24.5968 27.1602 24.73 27.3952 24.9674C27.5314 25.1027 27.6332 25.2688 27.692 25.4515C27.7424 25.5806 27.7673 25.7184 27.7652 25.8571C27.7652 26.5531 27.2011 27.1168 26.5055 27.1168H19.5772V28.3765H26.5055C27.7772 28.3725 28.8459 27.4194 28.9944 26.1564L34.7847 22.8143C35.1744 22.5895 35.6545 22.5895 36.0441 22.8143C36.4338 23.0391 36.674 23.4549 36.6743 23.9049C36.6773 24.3551 36.4381 24.7724 36.0475 24.9969Z" fill="#002E6C"/>
</g>
<defs>
<clipPath id="clip0_431_104">
<rect width="38" height="38" fill="white"/>
</clipPath>
</defs>
</svg>
