<svg width="35" height="33" viewBox="0 0 35 33" fill="none" xmlns="http://www.w3.org/2000/svg">
<path d="M3.15702 19.7932L6.33471 28.4784C7.14249 30.6815 9.25873 32.1635 11.6086 32.1635H23.3113C25.6546 32.1635 27.7775 30.6815 28.5853 28.4784L31.7563 19.7798C33.2316 19.6063 34.3999 18.3512 34.3999 16.8024C34.3999 15.781 33.8859 14.8798 33.1115 14.339C34.0594 11.7154 34.3799 9.03843 34.0127 6.78867C33.6255 4.43878 32.5373 2.81655 30.9418 2.23576C28.1513 1.20768 25.2206 3.67106 23.4983 6.13444C21.9962 8.27738 20.8947 10.9677 20.4875 13.805H20.0135V3.01683C20.0135 1.56817 18.8452 0.399902 17.3966 0.399902C15.9546 0.399902 14.7796 1.57485 14.7796 3.01683V13.805H13.6648C13.1908 10.5405 13.4044 9.21867 12.4364 7.3895L10.9277 4.54559C11.4684 4.27188 11.8089 3.68441 11.7355 3.05021L11.6821 2.5829C11.5886 1.76845 10.8543 1.18097 10.0331 1.27444L4.55227 1.90864C3.73782 2.0021 3.15702 2.73644 3.25048 3.55757L3.30389 4.02488C3.37732 4.65908 3.84463 5.15309 4.4321 5.29329L3.61765 8.40422C3.09026 10.3936 3.62433 11.8356 3.75784 13.805H3.40403C1.76177 13.805 0.399902 15.1335 0.399902 16.8091C0.406578 18.3712 1.62158 19.6663 3.15702 19.7932ZM27.911 28.2314C27.2034 30.1607 25.3542 31.4559 23.3047 31.4559H11.6019C9.55246 31.4559 7.70326 30.1607 6.99562 28.2314L3.91806 19.8065H30.9952L27.911 28.2314ZM24.8067 5.5937L29.0259 5.84738C29.5866 5.88076 30.0272 6.36142 29.9872 6.93554C29.9538 7.48963 29.4798 7.93024 28.899 7.89686L23.4182 7.56974C23.8321 6.86878 24.2593 6.24793 24.8067 5.5937ZM22.1431 10.2267L27.3035 10.5338C27.8709 10.5672 28.3049 11.0545 28.2648 11.622C28.2314 12.1827 27.7508 12.6233 27.1767 12.5833L21.5156 12.2495C21.6891 11.5619 21.876 10.9344 22.1431 10.2267ZM21.3553 12.9505L27.1366 13.2909C28.1046 13.3577 28.919 12.61 28.9725 11.662C29.0325 10.7074 28.2982 9.88626 27.3435 9.82617L22.4301 9.53244C22.6171 9.09851 22.8173 8.67125 23.0376 8.25068L28.859 8.59782C29.847 8.65123 30.6414 7.89686 30.6948 6.96892C30.7549 6.0076 30.0206 5.18647 29.0659 5.13307L25.4142 4.91944C27.2034 3.08359 29.146 2.32922 30.6948 2.90334C32.0367 3.39735 32.9646 4.8193 33.3051 6.90884C33.6522 9.01172 33.3518 11.5285 32.4773 14.0052C32.1702 13.8851 31.7763 13.805 31.3958 13.805H21.2018C21.2485 13.5179 21.3019 13.2308 21.3553 12.9505ZM15.494 3.01683C15.494 1.96205 16.3485 1.10754 17.4032 1.10754C18.458 1.10754 19.3125 1.96205 19.3125 3.01683V15.3004C19.3125 16.3551 18.458 17.2096 17.4032 17.2096C16.3485 17.2096 15.494 16.3551 15.494 15.3004V3.01683ZM4.0182 3.94477L3.9648 3.47746C3.91806 3.05021 4.21848 2.66301 4.64573 2.61628L10.1266 1.98207C10.5538 1.93534 10.941 2.24243 10.9878 2.66301L11.0412 3.12364C11.0879 3.55089 10.7875 3.93142 10.3669 3.98482H10.3602C9.77944 4.05158 12.1026 3.78455 4.87938 4.61903C4.44545 4.67911 4.06493 4.37202 4.0182 3.94477ZM4.30526 8.58447L5.16644 5.30664C12.116 4.50554 9.69933 4.77925 10.2267 4.71916L11.8156 7.71661C12.6901 9.37222 12.4898 10.5405 12.9571 13.805H9.96637L9.71936 11.6553C9.58584 10.4737 8.51103 9.6526 7.36279 9.78612L4.09831 10.1666C4.10499 9.63257 4.16507 9.09851 4.30526 8.58447ZM9.25873 13.805H4.47216L4.13837 10.921C4.13837 10.9077 4.13837 10.8943 4.13169 10.881L7.4429 10.4938C8.22397 10.4003 8.92494 10.9611 9.0184 11.7355L9.25873 13.805ZM3.4107 14.5126H14.7863V15.3004C14.7863 16.7423 15.9613 17.9173 17.4032 17.9173C18.8452 17.9173 20.0202 16.7423 20.0202 15.3004V14.5126H31.4025C32.6442 14.5126 33.6989 15.5273 33.6989 16.8091C33.6989 18.0641 32.6842 19.1056 31.4025 19.1056H3.4107C2.14897 19.1056 1.11422 18.0775 1.11422 16.8091C1.11422 15.5273 2.15565 14.5126 3.4107 14.5126Z" fill="#002E6C" stroke="#002E6C" stroke-width="0.8"/>
</svg>
